<mxfile host="app.diagrams.net" modified="2023-05-22T14:03:54.351Z" agent="Mozilla/5.0 (Windows NT 10.0; Win64; x64) AppleWebKit/537.36 (KHTML, like Gecko) Chrome/113.0.0.0 Safari/537.36" version="21.3.2" etag="JlC2hfV6mRkgC93Jm1jd" type="github">
  <diagram name="Page-1" id="Wt2jz2Q2WAIuut0lt6g4">
    <mxGraphModel>
      <root>
        <mxCell id="0" />
        <mxCell id="1" parent="0" />
      </root>
    </mxGraphModel>
  </diagram>
</mxfile>
